<svg width="1230" height="615" viewBox="0 0 1230 615" xmlns="http://www.w3.org/2000/svg" xmlns:xlink="http://www.w3.org/1999/xlink"><title>macbook</title><defs><linearGradient x1="50%" y1="0%" x2="50%" y2="100%" id="linearGradient-1"><stop stop-color="#FFF" stop-opacity=".5" offset="0%"/><stop stop-color="#E6E6E6" stop-opacity=".5" offset="100%"/></linearGradient><path d="M1019.677 0C1037.787 0 1053 15.267 1053 33.424v536.852c0 18.157-.111 33.424-18.513 33.424H127.364c-18.635 0-20.364-15.267-20.364-33.424V33.424C107 15.267 122.213 0 140.323 0h879.354zM141 47v496h878V47H141z" id="path-2"/><path d="M1158.147 6.288s-38.242 15.747-133.84 15.747c0 0-320.154 2.822-445.234 2.822-125.08 0-445.233-2.822-445.233-2.822C38.242 22.035 0 6.288 0 6.288h1158.147z" id="path-3"/><filter x="-4.4%" y="-267.2%" width="108.7%" height="645.1%" filterUnits="objectBoundingBox" id="filter-4"><feGaussianBlur stdDeviation="14.870625 0" in="SourceGraphic"/></filter><filter x="-4.7%" y="-286%" width="109.3%" height="682.8%" filterUnits="objectBoundingBox" id="filter-5"><feOffset dy="1" in="SourceAlpha" result="shadowOffsetOuter1"/><feGaussianBlur stdDeviation="3" in="shadowOffsetOuter1" result="shadowBlurOuter1"/><feColorMatrix values="0 0 0 0 0 0 0 0 0 0 0 0 0 0 0 0 0 0 1 0" in="shadowBlurOuter1"/></filter><linearGradient x1="50%" y1="99.741%" x2="50%" y2="0%" id="linearGradient-6"><stop stop-color="#D0D0D0" offset="0%"/><stop stop-color="#E7E7E7" offset="100%"/></linearGradient><linearGradient x1="100%" y1="59.021%" x2="0%" y2="59.021%" id="linearGradient-7"><stop offset="0%"/><stop stop-color="#FFF" stop-opacity=".5" offset="49.649%"/><stop offset="100%"/></linearGradient><path id="path-8" d="M.927.557h1158.147v3.714H.927z"/><filter x="0%" y="-13.5%" width="100.1%" height="126.9%" filterUnits="objectBoundingBox" id="filter-9"><feOffset dy="1" in="SourceAlpha" result="shadowOffsetInner1"/><feComposite in="shadowOffsetInner1" in2="SourceAlpha" operator="arithmetic" k2="-1" k3="1" result="shadowInnerInner1"/><feColorMatrix values="0 0 0 0 1 0 0 0 0 1 0 0 0 0 1 0 0 0 0.300000012 0" in="shadowInnerInner1"/></filter><linearGradient x1="50%" y1="2.057%" x2="50%" y2="100%" id="linearGradient-10"><stop offset="0%"/><stop stop-color="#9A9A9A" offset="100%"/></linearGradient><linearGradient x1="50%" y1="50%" x2="50%" y2="0%" id="linearGradient-11"><stop stop-opacity="0" offset="0%"/><stop offset="100%"/></linearGradient><linearGradient x1="50%" y1="20.793%" x2="50%" y2="100%" id="linearGradient-12"><stop stop-color="#FFF" stop-opacity="-.064" offset="0%"/><stop stop-color="#FFF" stop-opacity="0" offset="0%"/><stop stop-color="#FFF" offset="100%"/></linearGradient><path d="M579.073 9.842c-42.098 0-100.18-1.032-111.182-3.095V.557h222.365v6.19c-11.003 2.063-69.084 3.095-111.183 3.095z" id="path-13"/></defs><g id="Page-1" fill="none" fill-rule="evenodd"><g id="macbook" transform="translate(36)"><g id="Combined-Shape"><use fill="#F8F8F8" xlink:href="#path-2"/><use fill="url(#linearGradient-1)" xlink:href="#path-2"/><path stroke-opacity=".25" stroke="#FFF" stroke-width="4.461" d="M1019.677 2.23c16.874 0 31.092 14.265 31.092 31.194v536.852c0 12.764-.389 17.967-2.208 22.724-2.186 5.716-6.358 8.47-14.074 8.47H127.364c-7.908 0-12.532-2.85-15.139-8.595-2.243-4.944-2.994-11.55-2.994-22.6V33.426c0-16.93 14.218-31.194 31.092-31.194h879.354zM138.77 47v498.23h882.461V44.77H138.77V47z"/></g><g id="Group" transform="translate(0 583)"><use filter="url(#filter-5)" xlink:href="#path-3" id="shadow" opacity=".1" fill="#000"/><path d="M1159.073 4.27s-38.242 18.897-133.418 17.827c-.421 1.07-320.575 4.457-444.728 4.457-126.007 0-446.16-3.387-446.582-4.457C39.169 23.167.927 4.271.927 4.271h1158.146z" id="bottom" fill="url(#linearGradient-6)"/><g id="bottomfront"><use fill="#F3F3F3" xlink:href="#path-8"/><use fill-opacity=".02" fill="url(#linearGradient-7)" style="mix-blend-mode:multiply" xlink:href="#path-8"/><use fill="#000" filter="url(#filter-9)" xlink:href="#path-8"/></g><g id="shadows"><use fill="#FAFAFA" xlink:href="#path-13"/><use fill-opacity=".03" fill="url(#linearGradient-10)" style="mix-blend-mode:multiply" xlink:href="#path-13"/><use fill-opacity=".04" fill="url(#linearGradient-11)" style="mix-blend-mode:multiply" xlink:href="#path-13"/><use fill-opacity=".3" fill="url(#linearGradient-12)" style="mix-blend-mode:soft-light" xlink:href="#path-13"/></g></g></g></g></svg>